  <?xml version="1.0" encoding="utf-8"?>
<!-- Generator: Adobe Illustrator 22.0.0, SVG Export Plug-In . SVG Version: 6.00 Build 0)  -->
<svg version="1.1" id="Capa_1" xmlns="http://www.w3.org/2000/svg" xmlns:xlink="http://www.w3.org/1999/xlink" x="0px" y="0px"
	 viewBox="0 0 440.7 371.3" style="enable-background:new 0 0 440.7 371.3;" xml:space="preserve">
<style type="text/css">
	.st0{fill:#FFFFFF;}
	.st1{fill:#175081;}
	.st2{fill:#185081;}
	.st3{fill:#1A5282;}
	.st4{fill:#195182;}
	.st5{fill:#1B5383;}
	.st6{fill:#1C5383;}
	.st7{fill:#FD9B9B;}
	.st8{fill:#FDE590;}
	.st9{fill:#74BAF4;}
	.st10{fill:#FCE590;}
</style>
<g>
	<circle className="st0" cx="220.6" cy="184.4" r="162"/>
	<g>
		<path className="st1" d="M220,257.6c-12.7-0.2-24.6-3.3-35.6-9.7c-4.7-2.7-8-6.8-10.9-11.2c-1.4-2.1-3.1-3.3-5.8-3.4
			c-7.4-0.3-14.6-1.1-21.5-4.2c-9.7-4.4-15.2-11.8-15.4-22.3c-0.2-10.6,5.2-18.2,14.8-22.8c12.3-5.9,24.8-6.2,37.3-1
			c5,2.1,9.4,2.2,14.7,0.3c15.9-5.6,32.1-5.8,48,0.3c4.2,1.6,7.8,1.4,11.8-0.4c13.6-6.1,27.1-4.9,40,1.7
			c8.1,4.2,12.6,10.9,12.7,20.5c0.1,9.7-3.4,17.1-12,22.1c-8,4.7-16.7,5.4-25.6,6c-1.7,0.1-3.1,0.2-4.1,2
			c-5.7,10.8-15.7,15.7-26.7,19C234.7,256.6,227.4,257.9,220,257.6z"/>
		<path className="st2" d="M247,137.7c0,14-12.4,26.3-26.5,26.3c-13.8,0-26.5-12.7-26.3-26.5c0.2-14.1,12.5-26.4,26.5-26.4
			C234.6,111.2,247,123.7,247,137.7z"/>
		<path className="st2" d="M275.6,172.9c-9.6,0.1-18.4-8.6-18.6-18.4c-0.2-9.4,8.5-18.3,18-18.5c9.7-0.2,18.8,8.8,18.8,18.6
			C293.9,163.9,285,172.9,275.6,172.9z"/>
		<path className="st2" d="M147.5,153.7c0-9.9,8.3-18.1,18.1-18c9.8,0.1,18.5,8.7,18.5,18.4c0,9.4-9,18.4-18.3,18.3
			C155.9,172.4,147.5,163.8,147.5,153.7z"/>
		<path className="st3" d="M142.3,266.8c-0.3,0.4-0.6,0.9-1,1.4c-4.6,5.6-10,10.4-15.5,15.2c-1.5,1.3-3,1.1-4.3-0.1
			c-1.3-1.2-1.3-2.7-0.3-4c4.6-5.8,9.9-10.9,15.8-15.3C138.6,262.8,142.3,264.9,142.3,266.8z"/>
		<path className="st3" d="M321,86.8c0,1.6-0.9,2.6-1.7,3.5c-4,4.6-8.6,8.7-13.2,12.7c-1.6,1.4-3.6,2.2-5.3,0.4c-1.6-1.7-0.8-3.7,0.6-5
			c4.5-4.5,9.1-8.9,13.7-13.3c1.3-1.2,3-1.5,4.6-0.9C320.9,84.6,321,85.9,321,86.8z"/>
		<path className="st4" d="M303,263.4c1.6,0,2.7,1,3.6,1.9c4.3,4.1,8.6,8.3,12.9,12.5c1.5,1.5,2.5,3.3,0.7,5.2c-1.9,2-3.8,1-5.5-0.6
			c-4.4-4.3-8.7-8.5-13.2-12.8c-1.5-1.4-1.7-3.1-1.2-4.8C300.7,263.7,302,263.5,303,263.4z"/>
		<path className="st3" d="M346.8,187.9c-3,0-6,0-9,0c-2.5,0-3.6-1.4-3.8-3.7c-0.1-2.3,1.3-2.8,3.3-3c6.7-0.5,13.4-0.7,20.1,0
			c2.6,0.3,3.2,1.8,3.4,4c0.2,2.7-1.8,2.2-3.3,2.3c-3.6,0.3-7.2,0.4-10.8,0.5C346.8,188,346.8,188,346.8,187.9z"/>
		<path className="st4" d="M138.1,104.3c-1.1,0-1.9-0.6-2.7-1.2c-5-4.4-9.8-8.9-14.1-14c-0.9-1.1-1.8-2-0.5-3.5c1.2-1.4,2.5-2.1,4.2-1.2
			c1.1,0.6,2.1,1.4,3,2.2c4.2,4.1,8.3,8.3,12.5,12.4c0.8,0.8,2.4,1.5,1.2,3C140.9,103.2,139.9,104.5,138.1,104.3z"/>
		<path className="st5" d="M223.9,311.7c0,3.2,0,6.5,0,9.7c0,2.6-1.8,3.3-3.9,3.6c-2.5,0.3-2.1-1.9-2.2-3.1c-1-6.8-0.5-13.7-0.3-20.5
			c0-1.8,0.8-3.4,3.2-3.4c2.3,0.1,3.3,1.3,3.3,3.6C223.9,305,223.9,308.3,223.9,311.7z"/>
		<path className="st4" d="M93.7,188.1c-3.8-0.2-7.3-0.3-10.8-0.6c-1.1-0.1-2.8,0-2.4-1.9c0.3-1.6-0.2-3.9,2.1-4.2
			c7.6-1.1,15.1-0.8,22.7,0.1c2.1,0.3,1.2,2.4,1.4,3.7c0.3,1.6-0.7,2.2-2.2,2.3C100.8,187.7,97.1,187.9,93.7,188.1z"/>
		<path className="st6" d="M217.4,56.8c0-3.1,0-6.2,0-9.3c0-2.5,1.7-3.5,3.9-3.7c2.5-0.2,2.3,2.1,2.4,3.4c0.6,6.8,0.6,13.7,0,20.5
			c-0.2,1.9-0.7,3.2-3.1,3.3c-2.6,0-2.9-1.7-2.9-3.4c-0.2-3.6-0.1-7.2-0.1-10.8C217.5,56.8,217.4,56.8,217.4,56.8z"/>
		<path className="st7" d="M220.3,250.9c-11.9,0.2-23-2.8-33-9.2c-17.5-11.3-17.6-36.3,0.5-46.7c20.8-12,42.5-12.7,64-1.2
			c10,5.3,15.2,14.1,15,25.4c-0.1,11.2-6.2,19.3-15.9,24.5C241.4,248.8,231.1,251.2,220.3,250.9z"/>
		<path className="st8" d="M272.5,220.6c0.2-11.1-3.3-20.3-11.1-27.9c-3.1-3-3-3.3,1.1-4.5c11.1-3.1,22-2.7,32.3,2.8
			c5.9,3.2,9.6,8.1,9.7,14.9c0.1,7-3.3,12.1-9.3,15.6c-5.8,3.4-12.2,4.8-18.9,5.3c-3.6,0.3-4.8-0.9-3.9-4.4
			C272.5,221.8,272.5,221,272.5,220.6z"/>
		<path className="st9" d="M165.8,186.3c4.6,0,9.2,0.8,13.5,2.5c2.1,0.8,3,1.7,0.9,3.6c-9,8.3-12.1,18.9-11.4,30.8
			c0.2,2.8-0.6,3.8-3.5,3.6c-7.8-0.5-15.2-2.4-21.7-6.9c-9.3-6.4-9.3-22.1,2.1-28.5C151.9,187.9,158.5,186.1,165.8,186.3z"/>
		<path className="st7" d="M220.9,157.1c-11.5,0.1-20-8-20-19.1c-0.1-11.5,8.2-20,19.6-20.2c11.2-0.1,19.6,8.2,19.7,19.6
			C240.3,149.1,232.6,157,220.9,157.1z"/>
		<path className="st10" d="M275.4,166.2c-6.7,0-11.8-5.2-11.8-11.9c0-6.6,5.2-11.8,11.9-11.7c6.9,0.1,11.8,5.1,11.7,11.8
			C287.1,161.4,282.2,166.2,275.4,166.2z"/>
		<path className="st9" d="M165.7,142.5c7.1,0,11.9,4.7,11.9,11.5c0,6.9-5,11.9-11.7,11.9c-7,0-11.8-4.9-11.9-12.1
			C154,147,158.7,142.4,165.7,142.5z"/>
	</g>
</g>
</svg>
