<svg width="45" height="45" viewBox="0 0 45 45" fill="none" xmlns="http://www.w3.org/2000/svg">
    <path fill-rule="evenodd" clip-rule="evenodd"
        d="M22.6974 3.93701C15.8891 3.93701 10.1543 8.52129 8.42687 14.7638H26.6447L24.6711 18.7008L7.89473 18.7008C7.89473 19.3682 7.93914 20.0253 8.02516 20.6693H23.6842L21.7105 24.6063H9.12644C11.4107 29.8206 16.6273 33.4646 22.6974 33.4646C26.0304 33.4646 29.1061 32.3659 31.5804 30.5118L34.2072 33.4646C31.0302 35.932 27.0359 37.4016 22.6974 37.4016C14.4111 37.4016 7.38026 32.0405 4.90145 24.6063H0L1.97368 20.6693H4.05C3.98215 20.0224 3.94736 19.3656 3.94736 18.7008L0 18.7008L1.97368 14.7638H4.36361C6.17634 6.32611 13.6961 0 22.6974 0C27.5852 0 32.0362 1.86536 35.3737 4.92126L32.7613 7.87402C30.1202 5.43076 26.5837 3.93701 22.6974 3.93701Z"
        fill="white" />
    <path fill-rule="evenodd" clip-rule="evenodd"
        d="M34.7135 26.7206C36.0945 25.6784 36.9868 24.0258 36.9868 22.1654C36.9868 19.0126 34.4243 16.4567 31.2632 16.4567C28.1021 16.4567 25.5395 19.0126 25.5395 22.1654C25.5395 23.9819 26.3901 25.6002 27.7158 26.6457C25.0522 30.2474 23.6664 37.4218 23.25 41.5748H38.1316C37.9937 37.4504 37.099 30.346 34.7135 26.7206Z"
        fill="#EAEAEA" />
    <path fill-rule="evenodd" clip-rule="evenodd"
        d="M41.5819 30.1458C42.9629 29.1036 43.8553 27.451 43.8553 25.5905C43.8553 22.4377 41.2927 19.8819 38.1316 19.8819C34.9705 19.8819 32.4079 22.4377 32.4079 25.5905C32.4079 27.407 33.2586 29.0254 34.5842 30.0709C31.9206 33.6726 30.5348 40.847 30.1184 45H45C44.8621 40.8755 43.9674 33.7712 41.5819 30.1458Z"
        fill="white" />
</svg>