<svg width="45" height="45" viewBox="0 0 45 45" fill="none" xmlns="http://www.w3.org/2000/svg">
    <path fill-rule="evenodd" clip-rule="evenodd"
        d="M3.41444 10.5784C2.27462 12.3993 1.38816 14.395 0.804439 16.5162C3.71043 16.7355 6.00004 19.1629 6.00004 22.125C6.00004 25.1514 3.6101 27.6195 0.614624 27.745C1.14147 29.9514 1.99332 32.0317 3.11676 33.9324C5.32176 31.8616 8.78845 31.9033 10.9426 34.0575C13.0968 36.2116 13.1385 39.6783 11.0677 41.8833C12.9684 43.0067 15.0486 43.8586 17.2551 44.3854C17.3806 41.39 19.8487 39 22.875 39C25.8372 39 28.2645 41.2896 28.4839 44.1956C30.605 43.6119 32.6008 42.7254 34.4217 41.5856C32.6194 39.3762 32.7479 36.117 34.8075 34.0574C36.8031 32.0618 39.9253 31.8791 42.1271 33.5095C43.1433 31.7017 43.917 29.7394 44.404 27.6665C41.7602 27.2065 39.75 24.9005 39.75 22.125C39.75 19.4131 41.6692 17.1494 44.2234 16.618C43.6795 14.6044 42.8631 12.7027 41.8162 10.9549C39.6391 12.3501 36.7109 12.096 34.8075 10.1926C32.904 8.28912 32.6499 5.3609 34.0452 3.18385C32.2974 2.13695 30.3956 1.32055 28.382 0.776648C27.8506 3.33089 25.587 5.25002 22.875 5.25002C20.0996 5.25002 17.7936 3.23987 17.3335 0.596008C15.2607 1.08306 13.2983 1.85675 11.4905 2.87297C13.1209 5.07482 12.9383 8.19694 10.9426 10.1926C8.88306 12.2521 5.6238 12.3807 3.41444 10.5784ZM22.5 33.75C28.7132 33.75 33.75 28.7132 33.75 22.5C33.75 16.2868 28.7132 11.25 22.5 11.25C16.2868 11.25 11.25 16.2868 11.25 22.5C11.25 28.7132 16.2868 33.75 22.5 33.75Z"
        fill="white" />
</svg>